<svg xmlns="http://www.w3.org/2000/svg" xmlns:xlink="http://www.w3.org/1999/xlink" viewBox="0 0 334.31229 199.0004"><defs><clipPath id="e66e04a1-6f00-460f-9631-1d9015bb21d8" transform="translate(-795.8778 -460.9072)"><polygon points="1124.122 481.628 1103.152 595.34 821.835 574.936 801.437 494.205 1124.122 481.628" style="fill:none"/></clipPath><clipPath id="bd5eb557-7a71-4094-abe1-2359d80dc213" transform="translate(-795.8778 -460.9072)"><circle cx="1104.66817" cy="495.7788" r="9.72866" style="fill:none"/></clipPath><clipPath id="bd19045a-96ce-4871-ba0e-d501048d5cd9" transform="translate(-795.8778 -460.9072)"><circle cx="1092.53895" cy="579.92545" r="9.72868" transform="translate(-8.51147 16.32731) rotate(-0.85291)" style="fill:none"/></clipPath><clipPath id="ead1ec94-6ac8-433b-8e97-4f543a1f2edc" transform="translate(-795.8778 -460.9072)"><path d="M817.8337,513.5978a9.72865,9.72865,0,1,0-2.3764-13.5516A9.7286,9.7286,0,0,0,817.8337,513.5978Z" style="fill:none"/></clipPath><clipPath id="b8e9f385-b7b7-4508-a5cf-9a80af46f39e" transform="translate(-795.8778 -460.9072)"><path d="M836.7083,552.072a9.72869,9.72869,0,1,0,8.5018,10.8174A9.72871,9.72871,0,0,0,836.7083,552.072Z" style="fill:none"/></clipPath></defs><title>credits unclicked</title><g style="isolation:isolate"><g id="af7fdaa0-fe88-456e-a7cd-aa3c2bcf4283" data-name="Layer 1"><polygon points="316.115 34.366 306.39 137.465 17.183 125.588 0 37.146 316.115 34.366" style="fill:#34686e"/><polygon points="14.227 39.083 31.264 106.448 308.724 126.572 307.274 134.433 25.958 114.029 7.075 39.362 14.227 39.083" style="fill:#7df9ff"/><polygon points="328.244 20.721 307.274 134.433 25.958 114.029 5.559 33.297 328.244 20.721" style="fill:#70dce0;mix-blend-mode:screen"/><polygon points="320.664 26.785 7.003 39.01 5.559 33.297 328.244 20.721 307.274 134.433 300.897 133.97 320.664 26.785" style="fill:#70dce0;mix-blend-mode:multiply"/><g style="clip-path:url(#e66e04a1-6f00-460f-9631-1d9015bb21d8)"><polygon points="208.471 2.022 334.312 161.723 286.061 179.412 148.836 0 208.471 2.022" style="fill:#3cb8bd;mix-blend-mode:screen"/><polygon points="133.991 0 256.483 173.347 241.574 177.39 121.04 7.075 133.991 0" style="fill:#3cb8bd;mix-blend-mode:screen"/><polygon points="54.834 8.093 188.761 194.324 172.589 199 24.511 8.093 54.834 8.093" style="fill:#3cb8bd;mix-blend-mode:screen"/></g><circle cx="1102.39392" cy="497.92667" r="9.72868" transform="translate(-880.788 -194.30771) rotate(-13.28258)" style="fill:#70dce0;mix-blend-mode:multiply"/><circle cx="308.79037" cy="34.8716" r="9.72866" style="fill:#8b97b0"/><path d="M1113.2597,496.6316a9.71817,9.71817,0,0,0-14.9689-8.1881,9.72132,9.72132,0,1,1,11.6177,15.5234A9.69759,9.69759,0,0,0,1113.2597,496.6316Z" transform="translate(-795.8778 -460.9072)" style="fill:#697a96;mix-blend-mode:screen"/><g style="clip-path:url(#bd5eb557-7a71-4094-abe1-2359d80dc213)"><rect x="1103.152" y="481.6122" width="3.0323" height="28.3332" transform="translate(1413.45849 530.6504) rotate(-180)" style="fill:#5a6478"/></g><circle cx="1090.2647" cy="582.07332" r="9.72867" transform="translate(-660.60449 905.69014) rotate(-67.50004)" style="fill:#70dce0;mix-blend-mode:multiply"/><circle cx="1092.53895" cy="579.92545" r="9.72868" transform="translate(-804.38927 -444.57989) rotate(-0.85291)" style="fill:#8b97b0"/><path d="M1101.1305,580.7782a9.71836,9.71836,0,0,0-14.969-8.1881,9.72136,9.72136,0,1,1,11.6177,15.5235A9.69739,9.69739,0,0,0,1101.1305,580.7782Z" transform="translate(-795.8778 -460.9072)" style="fill:#697a96;mix-blend-mode:screen"/><g style="clip-path:url(#bd19045a-96ce-4871-ba0e-d501048d5cd9)"><rect x="1091.02277" y="565.75889" width="3.0323" height="28.33312" transform="translate(676.71512 1296.09674) rotate(-135.85378)" style="fill:#5a6478"/></g><circle cx="25.26927" cy="46.8745" r="9.72866" style="fill:#70dce0;mix-blend-mode:multiply"/><path d="M817.8337,513.5978a9.72865,9.72865,0,1,0-2.3764-13.5516A9.7286,9.7286,0,0,0,817.8337,513.5978Z" transform="translate(-795.8778 -460.9072)" style="fill:#8b97b0"/><path d="M832.0128,506.4866a9.71829,9.71829,0,0,0-14.9689-8.1881,9.72132,9.72132,0,1,1,11.6177,15.5234A9.69759,9.69759,0,0,0,832.0128,506.4866Z" transform="translate(-795.8778 -460.9072)" style="fill:#697a96;mix-blend-mode:screen"/><g style="clip-path:url(#ead1ec94-6ac8-433b-8e97-4f543a1f2edc)"><rect x="821.90511" y="491.46723" width="3.03228" height="28.33318" transform="translate(914.38998 -338.92863) rotate(125.05378)" style="fill:#5a6478"/></g><circle cx="833.2763" cy="563.87947" r="9.7287" transform="translate(-875.65021 -319.6996) rotate(-9.24574)" style="fill:#70dce0;mix-blend-mode:multiply"/><path d="M836.7083,552.072a9.72869,9.72869,0,1,0,8.5018,10.8174A9.72871,9.72871,0,0,0,836.7083,552.072Z" transform="translate(-795.8778 -460.9072)" style="fill:#8b97b0"/><path d="M844.1421,562.5844a9.71824,9.71824,0,0,0-14.969-8.1881,9.72133,9.72133,0,1,1,11.6177,15.5234A9.69734,9.69734,0,0,0,844.1421,562.5844Z" transform="translate(-795.8778 -460.9072)" style="fill:#697a96;mix-blend-mode:screen"/><g style="clip-path:url(#b8e9f385-b7b7-4508-a5cf-9a80af46f39e)"><rect x="834.03438" y="547.56497" width="3.03235" height="28.33316" transform="translate(-617.51045 863.58073) rotate(-83.16466)" style="fill:#5a6478"/></g><text transform="translate(70.76306 89.5029)" style="font-size:40px;fill:#fff;stroke:#000;stroke-miterlimit:10;stroke-width:2px;font-family:Gretaros-Regular, Gretaros">cre<tspan x="88.71875" y="0" style="letter-spacing:-0.0099853515625em">d</tspan><tspan x="120.47852" y="0" style="letter-spacing:-0.027001953125em">i</tspan><tspan x="133.9585" y="0" style="letter-spacing:-0.00799560546875em">t</tspan><tspan x="158.9585" y="0" style="letter-spacing:0.00001220703125em">s</tspan></text></g></g></svg>