<svg xmlns="http://www.w3.org/2000/svg" xmlns:xlink="http://www.w3.org/1999/xlink" viewBox="0 0 334.31229 199.0004"><defs><clipPath id="ad66b70f-8493-4c3a-a743-dd8b96dd1f72" transform="translate(-789.8099 -460.9072)"><polygon points="795.878 481.628 816.848 595.34 1098.165 574.936 1118.563 494.205 795.878 481.628" style="fill:none"/></clipPath><clipPath id="bbac3b6c-0ce4-49b9-88ff-44cd1681eded" transform="translate(-789.8099 -460.9072)"><circle cx="815.33183" cy="495.7788" r="9.72866" style="fill:none"/></clipPath><clipPath id="aecfa4ca-a6b9-4258-92fd-492ddea7e288" transform="translate(-789.8099 -460.9072)"><circle cx="827.46105" cy="579.92545" r="9.72867" transform="translate(235.28269 1398.66235) rotate(-89.14709)" style="fill:none"/></clipPath><clipPath id="e13e2fa1-69d3-410c-bc02-de51eb6f2970" transform="translate(-789.8099 -460.9072)"><path d="M1102.1663,513.5978a9.72865,9.72865,0,1,1,2.3764-13.5516A9.7286,9.7286,0,0,1,1102.1663,513.5978Z" style="fill:none"/></clipPath><clipPath id="af8e7ccd-52a7-4898-bed8-66de57ed93a5" transform="translate(-789.8099 -460.9072)"><path d="M1083.2917,552.072a9.72869,9.72869,0,1,1-8.5018,10.8174A9.72871,9.72871,0,0,1,1083.2917,552.072Z" style="fill:none"/></clipPath></defs><title>quit unclicked</title><g style="isolation:isolate"><g id="a31f120c-90d4-41f2-ab27-e03d1e752664" data-name="Layer 1"><polygon points="18.197 34.366 27.922 137.465 317.129 125.588 334.312 37.146 18.197 34.366" style="fill:#6e2e2e"/><polygon points="320.085 39.083 303.048 106.448 25.588 126.572 27.038 134.433 308.355 114.029 327.237 39.362 320.085 39.083" style="fill:#ff6f76"/><polygon points="6.068 20.721 27.038 134.433 308.355 114.029 328.753 33.297 6.068 20.721" style="fill:#e0646b;mix-blend-mode:screen"/><polygon points="13.649 26.785 327.31 39.01 328.753 33.297 6.068 20.721 27.038 134.433 33.415 133.97 13.649 26.785" style="fill:#e0646b;mix-blend-mode:multiply"/><g style="clip-path:url(#ad66b70f-8493-4c3a-a743-dd8b96dd1f72)"><polygon points="125.841 2.022 0 161.723 48.251 179.412 185.476 0 125.841 2.022" style="fill:#bd323a;mix-blend-mode:screen"/><polygon points="200.322 0 77.829 173.347 92.738 177.39 213.272 7.075 200.322 0" style="fill:#bd323a;mix-blend-mode:screen"/><polygon points="279.478 8.093 145.551 194.324 161.723 199 309.801 8.093 279.478 8.093" style="fill:#bd323a;mix-blend-mode:screen"/></g><circle cx="817.60608" cy="497.92668" r="9.72862" transform="translate(-644.65854 718.35297) rotate(-76.71742)" style="fill:#e0646b;mix-blend-mode:multiply"/><circle cx="25.52192" cy="34.8716" r="9.72866" style="fill:#b08c81"/><path d="M806.7403,496.6316a9.71817,9.71817,0,0,1,14.9689-8.1881,9.72132,9.72132,0,1,0-11.6177,15.5234A9.69759,9.69759,0,0,1,806.7403,496.6316Z" transform="translate(-789.8099 -460.9072)" style="fill:#966c61;mix-blend-mode:screen"/><g style="clip-path:url(#bbac3b6c-0ce4-49b9-88ff-44cd1681eded)"><rect x="24.0058" y="20.705" width="3.0323" height="28.3332" style="fill:#785b53"/></g><circle cx="829.7353" cy="582.07332" r="9.72871" transform="translate(-949.39974 -99.07419) rotate(-22.49996)" style="fill:#e0646b;mix-blend-mode:multiply"/><circle cx="827.46105" cy="579.92545" r="9.72867" transform="translate(-554.52721 937.75515) rotate(-89.14709)" style="fill:#b08c81"/><path d="M818.8695,580.7782a9.71836,9.71836,0,0,1,14.969-8.1881,9.72136,9.72136,0,1,0-11.6177,15.5235A9.69739,9.69739,0,0,1,818.8695,580.7782Z" transform="translate(-789.8099 -460.9072)" style="fill:#966c61;mix-blend-mode:screen"/><g style="clip-path:url(#aecfa4ca-a6b9-4258-92fd-492ddea7e288)"><rect x="825.94493" y="565.75889" width="3.0323" height="28.33312" transform="translate(-960.01904 279.20413) rotate(-44.14622)" style="fill:#785b53"/></g><circle cx="309.04302" cy="46.8745" r="9.72866" style="fill:#e0646b;mix-blend-mode:multiply"/><path d="M1102.1663,513.5978a9.72865,9.72865,0,1,1,2.3764-13.5516A9.7286,9.7286,0,0,1,1102.1663,513.5978Z" transform="translate(-789.8099 -460.9072)" style="fill:#b08c81"/><path d="M1087.9872,506.4866a9.71829,9.71829,0,0,1,14.9689-8.1881,9.72132,9.72132,0,1,0-11.6177,15.5234A9.69759,9.69759,0,0,1,1087.9872,506.4866Z" transform="translate(-789.8099 -460.9072)" style="fill:#966c61;mix-blend-mode:screen"/><g style="clip-path:url(#e13e2fa1-69d3-410c-bc02-de51eb6f2970)"><rect x="1095.06261" y="491.46723" width="3.03228" height="28.33318" transform="translate(90.87277 -1143.35561) rotate(54.94622)" style="fill:#785b53"/></g><circle cx="1086.7237" cy="563.87947" r="9.72862" transform="translate(-434.24299 1084.97951) rotate(-80.75426)" style="fill:#e0646b;mix-blend-mode:multiply"/><path d="M1083.2917,552.072a9.72869,9.72869,0,1,1-8.5018,10.8174A9.72871,9.72871,0,0,1,1083.2917,552.072Z" transform="translate(-789.8099 -460.9072)" style="fill:#b08c81"/><path d="M1075.8579,562.5844a9.71824,9.71824,0,0,1,14.969-8.1881,9.72133,9.72133,0,1,0-11.6177,15.5234A9.69734,9.69734,0,0,1,1075.8579,562.5844Z" transform="translate(-789.8099 -460.9072)" style="fill:#966c61;mix-blend-mode:screen"/><g style="clip-path:url(#af8e7ccd-52a7-4898-bed8-66de57ed93a5)"><rect x="1082.93327" y="547.56497" width="3.03235" height="28.33316" transform="translate(-134.03202 1244.42114) rotate(-96.83534)" style="fill:#785b53"/></g><text transform="translate(91.41031 94.70846)" style="font-size:60px;fill:#fff;stroke:#000;stroke-miterlimit:10;stroke-width:2px;font-family:Gretaros-Regular, Gretaros">qu<tspan x="99.35938" y="0" style="letter-spacing:-0.026993815104166666em">i</tspan><tspan x="119.57959" y="0">t</tspan></text></g></g></svg>